<?xml version="1.0" standalone="no"?>
<!DOCTYPE svg PUBLIC "-//W3C//DTD SVG 20010904//EN"
 "http://www.w3.org/TR/2001/REC-SVG-20010904/DTD/svg10.dtd">
<svg version="1.0" xmlns="http://www.w3.org/2000/svg"
 width="2048.000000pt" height="2048.000000pt" viewBox="0 0 2048.000000 2048.000000"
 preserveAspectRatio="xMidYMid meet">

<g transform="translate(0.000000,2048.000000) scale(0.100000,-0.100000)"
fill="#000000" stroke="none">
<path d="M0 10240 l0 -10240 10240 0 10240 0 0 10240 0 10240 -10240 0 -10240
0 0 -10240z m10525 7007 c125 -34 231 -82 454 -206 137 -76 188 -104 266 -146
39 -21 84 -46 100 -55 39 -23 184 -101 212 -114 13 -6 23 -14 23 -18 0 -5 4
-8 10 -8 5 0 32 -14 60 -30 48 -28 78 -45 278 -151 42 -23 116 -64 164 -90 48
-27 122 -67 165 -90 43 -23 90 -50 105 -61 14 -10 28 -18 31 -18 3 0 54 -28
114 -61 59 -34 146 -83 193 -109 47 -27 119 -66 160 -87 121 -63 255 -136 260
-142 3 -3 23 -16 45 -27 89 -47 162 -88 196 -110 21 -13 59 -34 85 -47 55 -27
103 -54 185 -103 31 -19 59 -34 63 -34 4 0 25 -12 48 -26 23 -15 130 -75 238
-134 107 -60 233 -129 280 -155 47 -27 113 -63 148 -82 35 -18 80 -44 100 -57
20 -12 71 -41 112 -63 298 -159 486 -265 535 -303 157 -120 295 -305 350 -468
55 -162 55 -178 52 -1424 l-3 -1146 29 -6 c16 -3 64 -6 106 -6 94 0 357 -48
386 -71 6 -4 22 -10 35 -12 141 -26 407 -170 549 -296 201 -178 346 -391 421
-617 18 -54 36 -106 40 -114 4 -9 11 -31 14 -50 4 -19 11 -44 16 -55 25 -55
59 -338 66 -535 5 -162 -7 -484 -26 -690 -10 -117 -13 -136 -66 -525 -3 -22
-8 -47 -11 -55 -6 -13 -23 -124 -39 -250 -3 -25 -10 -49 -15 -55 -5 -5 -9 -23
-9 -40 0 -16 -7 -59 -16 -95 -9 -36 -22 -101 -30 -145 -8 -44 -19 -105 -25
-135 -5 -30 -14 -59 -19 -65 -5 -6 -12 -34 -16 -63 -4 -29 -11 -55 -15 -58 -5
-3 -9 -16 -9 -30 0 -13 -4 -32 -9 -42 -5 -9 -15 -42 -21 -72 -7 -30 -16 -62
-20 -70 -5 -8 -18 -60 -30 -115 -13 -55 -26 -104 -31 -110 -4 -5 -12 -30 -19
-55 -6 -25 -18 -60 -27 -79 -8 -18 -16 -39 -18 -45 -7 -35 -19 -78 -38 -136
-11 -36 -22 -69 -23 -75 -1 -5 -17 -52 -36 -104 -38 -107 -49 -85 86 -173 164
-107 370 -337 447 -498 55 -113 66 -140 87 -205 57 -177 65 -232 66 -445 0
-180 -5 -247 -24 -320 -5 -19 -14 -57 -21 -85 -7 -27 -15 -54 -19 -60 -4 -5
-10 -23 -14 -40 -4 -16 -16 -48 -27 -72 -10 -23 -19 -49 -19 -57 0 -8 -3 -16
-7 -18 -5 -1 -21 -28 -37 -58 -59 -114 -144 -228 -241 -325 -55 -56 -112 -111
-128 -123 -62 -50 -207 -140 -282 -176 -104 -49 -109 -51 -180 -71 -33 -9 -68
-21 -77 -26 -10 -5 -33 -9 -52 -9 -19 0 -37 -4 -40 -9 -19 -30 -383 -34 -546
-7 -119 20 -240 51 -287 72 -17 8 -36 14 -42 14 -6 0 -19 4 -29 9 -9 6 -44 23
-77 39 -145 71 -239 136 -348 241 -88 85 -198 225 -247 316 -18 33 -39 69 -46
80 -22 35 -104 252 -104 277 0 13 -4 28 -9 34 -5 5 -12 29 -15 54 -3 25 -11
77 -17 115 -16 91 -17 311 -2 400 14 84 41 202 53 230 5 11 16 43 25 70 10 28
20 57 23 65 3 8 6 17 7 20 30 88 191 314 306 431 101 101 317 259 357 259 6 0
12 5 12 10 0 6 4 10 10 10 5 0 33 11 62 23 29 13 69 30 88 36 19 7 44 17 55
21 138 54 505 88 665 61 30 -5 58 -6 62 -3 9 10 78 179 78 194 1 7 9 31 20 53
11 22 20 49 20 60 0 11 9 38 19 60 10 22 21 58 25 80 4 22 11 45 16 50 4 6 10
31 13 56 3 25 12 59 18 75 7 16 13 34 14 39 0 6 4 17 8 25 11 26 57 213 57
234 0 18 12 63 30 111 12 31 40 160 40 183 0 12 4 23 9 26 8 5 18 47 24 103 1
12 5 25 10 29 4 4 7 27 7 50 0 24 5 46 10 49 6 3 10 23 10 44 0 20 4 41 9 47
5 5 12 32 15 59 7 52 9 69 26 175 6 36 15 99 20 140 5 41 14 107 20 145 6 39
15 117 20 175 5 58 14 150 21 206 15 129 9 825 -8 845 -6 8 -13 32 -16 54 -24
182 -120 390 -245 530 -83 93 -240 205 -342 243 -53 20 -168 52 -230 63 -68
12 -249 31 -267 27 -11 -2 -14 -186 -17 -978 -3 -536 -7 -995 -11 -1020 -26
-186 -80 -319 -195 -490 -84 -123 -233 -246 -435 -360 -33 -18 -112 -63 -175
-100 -63 -37 -140 -81 -170 -97 -30 -17 -71 -39 -90 -50 -97 -56 -353 -200
-410 -231 -36 -19 -108 -60 -160 -90 -52 -30 -108 -63 -125 -72 -85 -49 -177
-101 -225 -128 -30 -16 -73 -40 -95 -52 -22 -13 -69 -40 -105 -60 -36 -20 -98
-55 -137 -78 -135 -78 -208 -119 -323 -182 -63 -35 -133 -76 -156 -91 l-41
-28 -7 -85 c-4 -47 -14 -110 -22 -138 -38 -136 -49 -168 -80 -235 -19 -40 -34
-74 -34 -76 0 -14 -131 -232 -168 -281 -120 -157 -315 -331 -477 -428 -66 -40
-187 -98 -204 -98 -6 0 -26 -9 -46 -20 -20 -11 -40 -20 -46 -20 -5 0 -29 -9
-52 -19 -23 -10 -78 -27 -122 -36 -44 -10 -84 -21 -90 -25 -5 -4 -30 -11 -55
-15 -25 -4 -49 -10 -55 -14 -17 -10 -162 -30 -340 -47 -93 -8 -184 -19 -201
-24 -17 -6 -146 -13 -287 -17 -217 -5 -257 -8 -257 -21 0 -16 -59 -173 -90
-237 -10 -22 -26 -60 -36 -85 -10 -25 -20 -47 -23 -50 -4 -3 -26 -45 -51 -95
-25 -49 -59 -112 -76 -140 -78 -126 -120 -190 -126 -193 -5 -2 -8 -9 -8 -15 0
-7 -10 -23 -22 -37 -13 -14 -50 -61 -83 -105 -168 -226 -402 -455 -620 -608
-44 -31 -84 -60 -90 -65 -18 -14 -119 -75 -170 -102 -27 -15 -76 -41 -108 -58
-31 -18 -64 -32 -72 -32 -8 0 -15 -4 -15 -10 0 -5 -4 -10 -10 -10 -5 0 -40
-14 -77 -31 -114 -52 -127 -57 -153 -64 -14 -3 -43 -15 -65 -25 -22 -10 -67
-26 -100 -35 -33 -9 -65 -21 -72 -27 -7 -5 -17 -7 -22 -4 -5 4 -12 2 -15 -3
-4 -5 -25 -12 -49 -16 -23 -4 -46 -10 -52 -14 -5 -4 -21 -8 -35 -9 -13 -1 -34
-6 -45 -11 -23 -12 -194 -48 -310 -67 -44 -6 -107 -17 -140 -23 -138 -26 -357
-51 -510 -57 -580 -24 -1128 -5 -1470 51 -16 3 -63 8 -103 11 -40 4 -75 11
-78 15 -3 5 -25 9 -49 9 -24 0 -47 5 -50 10 -3 6 -18 10 -33 10 -47 0 -255 47
-372 83 -36 11 -72 21 -80 22 -8 1 -23 5 -32 9 -9 4 -22 8 -30 10 -7 1 -19 5
-26 9 -6 5 -16 6 -21 2 -5 -3 -12 -1 -15 4 -3 5 -26 12 -51 15 -24 4 -47 11
-50 17 -4 5 -17 9 -30 9 -13 0 -27 5 -30 10 -3 6 -13 10 -21 10 -9 0 -40 11
-70 25 -30 14 -60 25 -67 25 -24 0 -354 168 -461 234 -168 104 -396 305 -474
416 -159 230 -154 222 -222 360 -29 58 -56 113 -61 122 -5 10 -9 23 -9 29 0 6
-6 25 -14 42 -14 31 -28 67 -31 77 -16 58 -38 130 -45 145 -9 22 -21 66 -26
105 -12 78 -17 101 -25 106 -5 3 -9 23 -9 44 0 21 -4 41 -9 44 -5 3 -12 43
-16 88 -3 46 -10 92 -15 103 -5 11 -14 79 -20 150 -6 72 -15 166 -20 210 -24
221 -30 431 -26 862 6 561 14 795 26 807 6 6 10 49 10 98 0 48 5 120 10 160
10 71 26 260 36 423 2 44 9 89 14 100 4 11 11 67 15 125 3 58 8 119 11 135 2
17 7 67 11 113 3 45 10 85 14 88 5 3 9 34 9 69 0 35 5 67 10 70 6 3 10 30 10
59 0 28 4 56 9 62 5 5 12 36 15 69 2 33 10 87 16 120 6 33 15 87 19 120 5 33
14 87 20 120 7 33 14 74 16 90 10 66 38 201 46 220 4 11 11 45 15 75 3 30 10
61 15 70 10 19 23 90 20 113 -1 9 2 17 7 17 6 0 13 19 16 42 7 50 11 67 20 88
3 8 10 35 15 60 15 73 50 203 61 225 5 11 15 40 21 65 7 25 16 50 20 55 3 6
10 25 14 43 3 17 11 32 16 32 5 0 9 11 9 24 0 13 3 26 8 28 4 2 29 46 55 98
27 52 60 115 75 140 33 59 143 202 201 263 54 58 185 167 199 167 6 0 12 4 14
8 4 11 123 82 136 82 6 0 12 4 14 8 3 9 132 72 146 72 4 0 19 6 34 14 15 8 42
17 60 21 18 4 47 13 63 20 70 30 295 74 440 85 83 7 152 14 155 17 3 2 3 525
1 1161 -3 1242 -4 1212 46 1367 24 73 90 201 140 270 60 83 186 210 257 258
59 40 363 217 373 217 3 0 78 41 167 92 88 50 186 105 216 121 30 16 60 33 65
37 6 5 56 33 113 64 221 121 309 169 352 194 25 13 88 48 140 77 52 29 174 96
270 150 96 54 227 126 290 160 160 87 452 249 595 330 66 37 174 97 240 133
66 36 181 100 255 142 74 42 176 98 225 125 107 57 304 166 505 280 683 388
766 419 1115 410 118 -3 169 -9 240 -28z"/>
<path d="M12194 12450 c-102 -15 -219 -66 -305 -134 -64 -50 -146 -166 -179
-253 -31 -80 -39 -252 -16 -342 65 -253 281 -432 541 -448 171 -11 327 49 450
172 122 121 177 251 178 420 1 115 -16 187 -68 281 -92 164 -244 268 -444 300
-47 8 -90 13 -96 13 -5 -1 -33 -5 -61 -9z"/>
<path d="M8090 12440 c-25 -5 -87 -30 -139 -56 -318 -157 -424 -533 -238 -842
62 -105 200 -212 319 -250 74 -23 282 -23 357 1 259 82 437 343 417 613 -18
240 -155 423 -384 511 -54 21 -88 26 -177 29 -60 2 -130 -1 -155 -6z"/>
<path d="M4850 11153 c-122 -11 -232 -27 -275 -38 -63 -17 -174 -52 -200 -64
-11 -5 -38 -17 -60 -26 -72 -32 -199 -121 -264 -186 -86 -86 -177 -209 -216
-294 -51 -110 -73 -159 -74 -167 -1 -5 -10 -32 -20 -60 -41 -115 -52 -157 -87
-323 -8 -38 -17 -79 -19 -90 -47 -207 -62 -284 -72 -368 -3 -26 -10 -50 -14
-53 -5 -3 -9 -24 -9 -48 0 -23 -3 -46 -7 -49 -3 -4 -7 -19 -9 -34 -6 -81 -17
-150 -24 -168 -5 -11 -12 -45 -15 -75 -3 -30 -8 -80 -11 -110 -3 -30 -10 -59
-15 -64 -5 -6 -9 -40 -9 -76 0 -36 -4 -70 -9 -76 -5 -5 -12 -36 -14 -69 -5
-54 -19 -175 -48 -415 -25 -212 -30 -260 -35 -335 -2 -44 -9 -89 -14 -100 -5
-11 -12 -69 -14 -130 -3 -60 -12 -216 -21 -345 -29 -401 -22 -1419 10 -1592 4
-18 10 -76 16 -128 14 -146 20 -194 26 -210 3 -8 6 -28 8 -45 1 -16 7 -52 14
-80 7 -27 18 -75 24 -105 7 -30 16 -61 21 -68 4 -7 5 -16 2 -19 -3 -3 1 -18
10 -34 8 -16 12 -29 9 -29 -3 0 0 -10 7 -23 6 -12 13 -29 15 -38 1 -8 9 -29
18 -45 8 -16 15 -34 15 -41 0 -7 11 -32 24 -57 14 -26 23 -46 20 -46 -10 0 94
-183 145 -253 93 -131 275 -288 421 -363 30 -15 58 -33 62 -38 4 -6 8 -8 8 -5
0 4 52 -20 116 -52 64 -32 121 -56 125 -53 5 3 9 0 9 -5 0 -6 7 -11 15 -11 8
0 24 -4 35 -10 11 -5 28 -14 38 -19 9 -4 65 -23 122 -40 58 -18 114 -36 125
-41 39 -16 81 -28 140 -40 33 -6 67 -16 76 -20 9 -5 54 -14 100 -21 46 -7 88
-16 94 -21 5 -4 25 -8 44 -8 19 0 48 -4 65 -9 82 -25 256 -46 521 -61 88 -6
192 -15 230 -21 39 -7 186 -14 328 -17 252 -4 378 2 742 35 88 8 187 16 220
19 33 3 64 10 70 15 5 5 27 9 49 9 22 0 53 4 70 9 32 10 128 29 183 35 18 2
37 7 43 11 12 7 111 34 142 39 10 1 21 5 24 9 4 4 13 7 20 7 7 0 25 5 41 12
15 6 33 12 38 13 6 1 12 3 15 4 3 1 15 4 26 6 12 3 34 10 50 16 16 7 31 13 34
13 3 1 10 4 16 8 6 4 37 17 70 28 127 47 453 216 462 241 2 5 8 9 14 9 11 0
100 67 213 161 121 100 324 320 392 425 7 10 31 45 53 76 22 31 40 59 40 63 0
8 43 69 53 73 4 2 7 10 7 17 0 7 3 15 8 17 11 5 152 296 152 315 0 5 7 24 16
42 9 18 14 34 11 37 -3 3 -65 9 -138 14 -74 6 -156 14 -184 20 -27 5 -66 12
-85 14 -41 5 -82 13 -130 26 -19 5 -66 17 -105 25 -90 21 -289 87 -293 97 -2
4 -11 8 -20 8 -30 0 -157 64 -257 129 -139 91 -216 153 -316 259 -143 150
-313 427 -336 546 -3 17 -9 36 -13 41 -4 6 -10 24 -13 40 -3 17 -12 68 -21
115 -21 112 -21 216 -1 228 13 7 12 11 -7 28 -24 22 -47 35 -378 224 -307 175
-685 391 -865 495 -88 51 -250 143 -360 206 -110 62 -274 155 -365 207 -91 52
-190 108 -220 125 -278 152 -444 340 -544 617 -52 143 -57 230 -56 965 3 1236
2 1245 -17 1243 -10 0 -34 -3 -53 -5z"/>
<path d="M9240 10854 c-52 -22 -98 -61 -128 -107 -38 -59 -37 -145 2 -242 130
-321 401 -557 762 -664 147 -43 243 -54 407 -48 157 6 287 32 439 87 200 73
430 254 541 426 104 162 148 290 127 373 -31 125 -113 191 -235 191 -119 0
-211 -62 -250 -169 -58 -157 -157 -263 -320 -342 -131 -63 -232 -84 -375 -76
-171 9 -299 52 -425 141 -106 76 -173 162 -211 269 -22 63 -74 124 -128 152
-58 29 -150 33 -206 9z"/>
<path d="M8200 6972 c0 -26 43 -172 67 -225 34 -77 105 -198 152 -258 99 -126
287 -263 456 -332 164 -67 237 -85 487 -121 53 -8 105 -17 115 -20 87 -25 956
-37 1229 -16 462 35 786 125 1032 287 127 84 284 268 364 428 32 62 88 220 88
246 0 19 -34 19 -1995 19 -1097 0 -1995 -4 -1995 -8z"/>
<path d="M15712 6400 c-126 -18 -285 -81 -407 -163 -83 -55 -212 -191 -261
-273 -72 -122 -122 -276 -139 -430 -7 -68 8 -229 31 -317 47 -184 189 -385
359 -512 81 -60 129 -86 223 -120 144 -51 190 -59 342 -59 160 0 262 19 390
73 235 99 452 333 528 571 62 193 64 370 7 562 -99 331 -371 581 -711 652 -90
19 -281 27 -362 16z m294 -481 c126 -39 239 -137 298 -259 27 -56 31 -78 35
-159 4 -116 -16 -198 -69 -279 -98 -152 -235 -227 -410 -225 -110 2 -200 30
-277 87 -136 100 -200 238 -191 411 4 80 10 102 42 169 105 218 345 325 572
255z"/>
</g>
</svg>
